PathFileType	4	(X/Y/Z)	c:/Users/goper/Files/vsCode/490R/osim_files/A02/A02_Fast_02.trc
DataRate	CameraRate	NumFrames	NumMarkers	Units                	OrigDataRate	OrigDataStartFrame	OrigNumFrames
250.00	250.00	4	36	mm	250.0	1574	2518
                Frame#	Time	Mobility_markerset:LPSIS			Mobility_markerset:LASIS			Mobility_markerset:LTH1			Mobility_markerset:LTH2			Mobility_markerset:LTH3			Mobility_markerset:LTH4			Mobility_markerset:LLFE			Mobility_markerset:LMFE			Mobility_markerset:LSH1			Mobility_markerset:LSH2			Mobility_markerset:LSH3			Mobility_markerset:LSH4			Mobility_markerset:LLMAL			Mobility_markerset:LMMAL			Mobility_markerset:LCAL			Mobility_markerset:LMTP5			Mobility_markerset:LTOE			Mobility_markerset:LMTP1			Mobility_markerset:RPSIS			Mobility_markerset:RASIS			Mobility_markerset:RTH1			Mobility_markerset:RTH2			Mobility_markerset:RTH3			Mobility_markerset:RTH4			Mobility_markerset:RLFE			Mobility_markerset:RMFE			Mobility_markerset:RSH1			Mobility_markerset:RSH2			Mobility_markerset:RSH3			Mobility_markerset:RSH4			Mobility_markerset:RLMAL			Mobility_markerset:RMMAL			Mobility_markerset:RCAL			Mobility_markerset:RMTP1			Mobility_markerset:RTOE			Mobility_markerset:RMTP5		
		X1	Y1	Z1	X2	Y2	Z2	X3	Y3	Z3	X4	Y4	Z4	X5	Y5	Z5	X6	Y6	Z6	X7	Y7	Z7	X8	Y8	Z8	X9	Y9	Z9	X10	Y10	Z10	X11	Y11	Z11	X12	Y12	Z12	X13	Y13	Z13	X14	Y14	Z14	X15	Y15	Z15	X16	Y16	Z16	X17	Y17	Z17	X18	Y18	Z18	X19	Y19	Z19	X20	Y20	Z20	X21	Y21	Z21	X22	Y22	Z22	X23	Y23	Z23	X24	Y24	Z24	X25	Y25	Z25	X26	Y26	Z26	X27	Y27	Z27	X28	Y28	Z28	X29	Y29	Z29	X30	Y30	Z30	X31	Y31	Z31	X32	Y32	Z32	X33	Y33	Z33	X34	Y34	Z34	X35	Y35	Z35	X36	Y36	Z36

1574	6.29200	0.00000	0.00000	0.00000	-2731.48291	946.77032	400.53375	-2694.11108	686.81567	436.33746	-2720.73462	647.32001	436.12738	-2746.77344	713.45581	457.11981	-2763.67188	671.62463	449.12943	-2829.49268	505.69662	414.62814	-2864.43164	486.89185	299.18826	-2748.25708	452.41016	402.82178	-2730.14160	411.03723	406.13153	-2801.08154	426.05963	415.67902	-2777.40869	388.04367	419.12030	-2671.14893	162.04724	367.46292	-2695.50049	167.61806	286.69003	-2605.53149	161.39804	314.93509	-2740.14697	74.36035	385.38388	-2801.97852	85.42246	328.54797	-2765.35132	72.94002	276.99026	0.00000	0.00000	0.00000	-2764.87817	958.16791	157.72510	-2709.38062	640.12683	140.87483	-2714.82715	596.41772	139.89171	-2771.85522	639.70575	141.56223	-2766.83887	596.84070	139.97357	-2727.86694	483.46500	131.33105	-2748.78369	484.73645	264.14355	-2766.07739	296.72787	148.19594	-2760.21167	250.17471	155.20668	-2705.32178	298.58142	152.44582	-2707.73120	252.57520	162.94966	-2700.84521	93.48320	161.46178	-2711.57690	96.69393	245.34029	-2650.77246	74.32900	205.25046	-2837.10303	60.45750	238.15990	-2858.24438	72.37409	203.35628	-2828.25098	58.71346	146.47876
1575	6.29600	-2598.24097	980.80188	315.51477	-2736.92065	946.78979	400.47159	-2701.33960	687.02631	437.12311	-2727.72388	647.65063	436.35785	-2753.52466	714.11298	456.97992	-2770.45410	672.25867	448.93387	-2837.22778	506.72397	413.97510	-2872.07446	488.30466	298.64597	-2756.48633	450.87900	401.84222	-2739.63281	408.98404	405.38474	-2810.18018	426.24762	415.17188	-2787.44360	387.49365	418.55460	-2687.83447	158.49055	367.66537	-2712.21631	164.23309	286.91211	0.00000	0.00000	0.00000	-2759.31812	73.34644	386.57599	-2821.04639	85.92039	329.87933	-2785.10327	71.76724	278.43048	-2609.98096	993.71960	214.16382	-2769.81006	958.04602	157.65446	-2713.73657	640.58893	139.63217	-2718.00488	596.77814	139.70181	-2775.34253	639.44165	141.68814	-2770.16235	596.71631	139.93686	-2730.71631	483.39340	130.71069	-2751.55640	484.74765	264.08170	-2767.61353	296.61920	148.22318	-2761.52856	250.10423	155.20390	-2706.82886	298.87457	152.46678	-2709.78589	253.82458	161.15553	-2701.05396	93.63734	161.57324	-2711.90259	96.82449	245.34737	-2650.98096	74.51630	205.32736	-2837.11255	60.05561	238.13251	-2858.43677	72.00911	203.37862	-2828.40161	58.56575	146.50252
1576	6.30000	-2602.97095	980.47961	315.52386	-2742.80957	947.05164	400.62036	-2708.21338	687.29791	437.59485	0.00000	0.00000	0.00000	-2760.34155	714.87360	457.11206	-2777.39014	672.92450	448.80807	-2844.93237	507.64929	413.35480	-2879.54639	489.55692	298.07712	-2765.12671	449.49576	401.28510	-2749.49072	407.31226	404.91620	-2819.21387	426.40649	414.63516	-2797.66602	387.03094	418.16086	-2704.51099	155.02065	367.88739	-2729.09814	161.01093	287.09619	-2639.59668	148.89130	314.07510	-2778.17407	72.48909	387.75339	-2839.88135	86.23284	331.28116	-2805.05151	70.77649	279.78464	-2614.26294	993.53888	215.95175	-2774.75513	957.85681	157.58508	-2717.35474	640.77972	139.58508	-2721.79810	596.51685	140.50449	-2779.03540	639.28601	141.62997	-2773.59033	596.61731	139.87700	-2733.37158	483.53088	130.71011	-2752.96387	483.92279	264.51340	-2769.10620	296.53400	148.19901	-2762.88184	250.15833	155.16367	-2708.33496	299.03448	152.56624	0.00000	0.00000	0.00000	-2701.22559	93.75087	161.64641	-2712.06909	96.88525	245.32968	-2650.73755	74.98590	205.57088	-2837.41992	59.97013	238.19325	-2858.58105	71.67355	203.41312	-2828.47974	58.46872	146.58806
1577	6.30400	-2608.31543	980.08630	315.92700	-2747.71240	946.75262	400.40530	-2715.09937	687.56934	438.14795	-2741.80542	648.47809	437.13504	-2767.17139	715.39996	457.14474	-2784.45264	673.63873	448.85391	-2852.40137	508.34271	412.67566	-2886.95605	490.72101	297.50827	-2773.31226	447.75537	400.41702	-2758.68457	405.25842	405.23669	-2828.23193	426.26782	414.24719	-2807.82715	386.57953	417.96365	-2721.59668	151.80949	368.17941	-2745.92358	157.76869	287.33148	0.00000	0.00000	0.00000	-2797.53076	71.97722	388.90121	-2859.32690	87.51888	332.59802	-2824.88184	70.05379	281.19882	-2620.06226	993.40759	214.65359	-2779.58252	957.52887	157.56923	-2720.25659	640.80603	140.66820	-2724.86475	596.97986	139.85867	-2782.68530	639.07172	141.51369	-2776.92090	596.46466	139.75455	-2736.29614	483.48361	130.58984	-2756.12891	484.19833	264.27423	-2770.67578	296.39920	148.20451	-2763.97290	249.94203	155.24774	-2709.92798	299.39474	152.44806	-2711.50366	253.45459	162.75909	-2701.35693	93.85408	161.72810	-2712.34399	97.00436	245.34593	-2650.06738	75.84082	205.28598	-2837.62158	59.86291	238.05675	-2858.76758	71.39984	203.42091	-2828.66504	58.37296	146.61830
